<svg xmlns="http://www.w3.org/2000/svg" viewBox="0 0 500 500"><defs><style>.cls-1,.cls-5{fill:none}.cls-2,.cls-6{fill:#ff9e9d}.cls-3{fill:#fff}.cls-3,.cls-5,.cls-6{stroke:#62626a;stroke-miterlimit:10;stroke-width:9px}.cls-4{fill:#62626a}</style></defs><title/><g id="Layer_2" data-name="Layer 2"><g id="Layer_1-2" data-name="Layer 1"><rect width="500" height="500" class="cls-1" rx="250" ry="250"/><path d="M276.47,250H223.53a42.07,42.07,0,0,1-41-32.69L162,127.54c-5.63-24.62,12.6-49.23,46.24-60.81A129,129,0,0,1,250,60h0a129,129,0,0,1,41.8,6.73c33.64,11.58,51.87,36.19,46.24,60.81l-20.56,89.77A42.07,42.07,0,0,1,276.47,250Z" class="cls-2"/><path d="M400,333.23V470H100V333.23a52.75,52.75,0,0,1,42.39-51.72l20.13-4,33.3-6.66a276.76,276.76,0,0,1,108.36,0l36.18,7.23,17.25,3.45A52.75,52.75,0,0,1,400,333.23Z" class="cls-3"/><path d="M330,350v31.42A47.9,47.9,0,0,1,330,440v30" class="cls-3"/><circle cx="315" cy="175" r="15" class="cls-3"/><circle cx="185" cy="175" r="15" class="cls-3"/><path d="M304.18,270.83q-12-2.4-24.18-3.7V230H220v37.13q-12.15,1.32-24.18,3.7L170,276v4l30.11,33.88a66.75,66.75,0,0,0,99.78,0L330,280v-4Z" class="cls-3"/><path d="M190,130v60a60,60,0,0,0,60,60h0a60,60,0,0,0,60-60V130" class="cls-3"/><path d="M320,130s-50,0-70-20c-20,20-70,20-70,20" class="cls-3"/><circle cx="275" cy="165" r="5" class="cls-4"/><circle cx="225" cy="165" r="5" class="cls-4"/><path d="M270,200h0a20,20,0,0,1-40,0" class="cls-3"/><path d="M170,350v31.42A47.9,47.9,0,0,0,170,440v30" class="cls-3"/><polyline points="320 180 280 220 270 220" class="cls-3"/><rect width="20" height="30" x="310" y="160" class="cls-4" rx="10" ry="10"/><rect width="20" height="30" x="170" y="160" class="cls-4" rx="10" ry="10"/><path d="M320,170V140c0-33.14-31.34-60-70-60s-70,26.86-70,60v30" class="cls-5"/><rect width="40" height="20" x="270" y="350" class="cls-6"/></g></g></svg>